<svg xmlns="http://www.w3.org/2000/svg" viewBox="0 0 640 512"><!--!Font Awesome Free 6.7.1 by @fontawesome - https://fontawesome.com License - https://fontawesome.com/license/free Copyright 2024 Fonticons, Inc.--><path d="M581.1 96.2c-27.7-.2-52.5 17.6-76.6 26.6C490 88.3 455.8 64 416 64c-11.3 0-22 2.3-32 5.9V56c0-13.3-10.8-24-24-24h-16c-13.3 0-24 10.7-24 24v49C286 79.6 241.2 64 192 64 86 64 0 135.6 0 224v240c0 8.8 7.2 16 16 16h64c8.8 0 16-7.2 16-16v-70.8C128.4 407.6 166.7 416 208 416s79.7-8.4 112-22.8V464c0 8.8 7.2 16 16 16h64c8.8 0 16-7.2 16-16V288h128v32c0 8.8 7.2 16 16 16h32c8.8 0 16-7.2 16-16v-32c17.7 0 32-14.3 32-32v-92c0-34.1-24.8-67.6-58.9-67.8zM448 176c-8.8 0-16-7.2-16-16s7.2-16 16-16 16 7.2 16 16-7.2 16-16 16z"/></svg>